<mxfile host="app.diagrams.net" agent="Mozilla/5.0 (Windows NT 10.0; Win64; x64) AppleWebKit/537.36 (KHTML, like Gecko) Chrome/130.0.0.0 Safari/537.36" version="24.8.6">
  <diagram name="페이지-1" id="nJejwRwPLb-bD2uT89pg">
    <mxGraphModel dx="954" dy="592" grid="1" gridSize="10" guides="1" tooltips="1" connect="1" arrows="1" fold="1" page="1" pageScale="1" pageWidth="827" pageHeight="1169" math="0" shadow="0">
      <root>
        <mxCell id="0" />
        <mxCell id="1" parent="0" />
        <mxCell id="Q1Z3w6xMWcTuyXc4V8u3-6" style="edgeStyle=orthogonalEdgeStyle;rounded=0;orthogonalLoop=1;jettySize=auto;html=1;exitX=0;exitY=0.5;exitDx=0;exitDy=0;" parent="1" source="Q1Z3w6xMWcTuyXc4V8u3-4" edge="1">
          <mxGeometry relative="1" as="geometry">
            <mxPoint x="60" y="360" as="targetPoint" />
            <mxPoint x="60" y="120" as="sourcePoint" />
          </mxGeometry>
        </mxCell>
        <mxCell id="Q1Z3w6xMWcTuyXc4V8u3-4" value="참가한 채팅방 목록" style="rounded=0;whiteSpace=wrap;html=1;" parent="1" vertex="1">
          <mxGeometry x="100" y="130" width="120" height="60" as="geometry" />
        </mxCell>
        <mxCell id="yeTjRVyONtyWQfsbNsEQ-1" style="edgeStyle=orthogonalEdgeStyle;rounded=0;orthogonalLoop=1;jettySize=auto;html=1;" edge="1" parent="1" source="Q1Z3w6xMWcTuyXc4V8u3-5" target="yeTjRVyONtyWQfsbNsEQ-2">
          <mxGeometry relative="1" as="geometry">
            <mxPoint x="320" y="135" as="targetPoint" />
          </mxGeometry>
        </mxCell>
        <mxCell id="yeTjRVyONtyWQfsbNsEQ-33" style="edgeStyle=orthogonalEdgeStyle;rounded=0;orthogonalLoop=1;jettySize=auto;html=1;entryX=0.5;entryY=0;entryDx=0;entryDy=0;" edge="1" parent="1" source="Q1Z3w6xMWcTuyXc4V8u3-5" target="Q1Z3w6xMWcTuyXc4V8u3-4">
          <mxGeometry relative="1" as="geometry" />
        </mxCell>
        <mxCell id="Q1Z3w6xMWcTuyXc4V8u3-5" value="로그인/회원가입 창" style="rounded=0;whiteSpace=wrap;html=1;" parent="1" vertex="1">
          <mxGeometry x="100" y="20" width="120" height="70" as="geometry" />
        </mxCell>
        <mxCell id="yeTjRVyONtyWQfsbNsEQ-29" style="edgeStyle=orthogonalEdgeStyle;rounded=0;orthogonalLoop=1;jettySize=auto;html=1;" edge="1" parent="1" source="Q1Z3w6xMWcTuyXc4V8u3-7" target="yeTjRVyONtyWQfsbNsEQ-30">
          <mxGeometry relative="1" as="geometry">
            <mxPoint x="100" y="500" as="targetPoint" />
          </mxGeometry>
        </mxCell>
        <mxCell id="Q1Z3w6xMWcTuyXc4V8u3-7" value="참가한 채팅방 접속시&amp;nbsp;&lt;div&gt;채팅내역보임&lt;/div&gt;" style="rounded=0;whiteSpace=wrap;html=1;" parent="1" vertex="1">
          <mxGeometry x="10" y="370" width="180" height="70" as="geometry" />
        </mxCell>
        <mxCell id="yeTjRVyONtyWQfsbNsEQ-2" value="회원정보db" style="shape=cylinder3;whiteSpace=wrap;html=1;boundedLbl=1;backgroundOutline=1;size=14;" vertex="1" parent="1">
          <mxGeometry x="340" y="15" width="110" height="80" as="geometry" />
        </mxCell>
        <mxCell id="yeTjRVyONtyWQfsbNsEQ-5" style="edgeStyle=orthogonalEdgeStyle;rounded=0;orthogonalLoop=1;jettySize=auto;html=1;entryX=1;entryY=0.5;entryDx=0;entryDy=0;" edge="1" parent="1" source="yeTjRVyONtyWQfsbNsEQ-3" target="Q1Z3w6xMWcTuyXc4V8u3-7">
          <mxGeometry relative="1" as="geometry">
            <mxPoint x="280" y="380" as="targetPoint" />
          </mxGeometry>
        </mxCell>
        <mxCell id="yeTjRVyONtyWQfsbNsEQ-13" style="edgeStyle=orthogonalEdgeStyle;rounded=0;orthogonalLoop=1;jettySize=auto;html=1;" edge="1" parent="1" source="yeTjRVyONtyWQfsbNsEQ-3" target="Q1Z3w6xMWcTuyXc4V8u3-4">
          <mxGeometry relative="1" as="geometry" />
        </mxCell>
        <mxCell id="yeTjRVyONtyWQfsbNsEQ-3" value="채팅방 db" style="shape=cylinder3;whiteSpace=wrap;html=1;boundedLbl=1;backgroundOutline=1;size=15;" vertex="1" parent="1">
          <mxGeometry x="350" y="120" width="100" height="80" as="geometry" />
        </mxCell>
        <mxCell id="yeTjRVyONtyWQfsbNsEQ-14" value="" style="endArrow=classic;html=1;rounded=0;" edge="1" parent="1">
          <mxGeometry width="50" height="50" relative="1" as="geometry">
            <mxPoint x="160" y="190" as="sourcePoint" />
            <mxPoint x="160" y="240" as="targetPoint" />
          </mxGeometry>
        </mxCell>
        <mxCell id="yeTjRVyONtyWQfsbNsEQ-17" style="edgeStyle=orthogonalEdgeStyle;rounded=0;orthogonalLoop=1;jettySize=auto;html=1;" edge="1" parent="1" source="yeTjRVyONtyWQfsbNsEQ-15" target="yeTjRVyONtyWQfsbNsEQ-18">
          <mxGeometry relative="1" as="geometry">
            <mxPoint x="350" y="270" as="targetPoint" />
          </mxGeometry>
        </mxCell>
        <mxCell id="yeTjRVyONtyWQfsbNsEQ-15" value="채팅방 검색" style="rounded=0;whiteSpace=wrap;html=1;" vertex="1" parent="1">
          <mxGeometry x="100" y="240" width="120" height="60" as="geometry" />
        </mxCell>
        <mxCell id="yeTjRVyONtyWQfsbNsEQ-19" style="edgeStyle=orthogonalEdgeStyle;rounded=0;orthogonalLoop=1;jettySize=auto;html=1;" edge="1" parent="1" source="yeTjRVyONtyWQfsbNsEQ-18" target="yeTjRVyONtyWQfsbNsEQ-23">
          <mxGeometry relative="1" as="geometry">
            <mxPoint x="390" y="410" as="targetPoint" />
          </mxGeometry>
        </mxCell>
        <mxCell id="yeTjRVyONtyWQfsbNsEQ-20" style="edgeStyle=orthogonalEdgeStyle;rounded=0;orthogonalLoop=1;jettySize=auto;html=1;" edge="1" parent="1" source="yeTjRVyONtyWQfsbNsEQ-18">
          <mxGeometry relative="1" as="geometry">
            <mxPoint x="500" y="270" as="targetPoint" />
          </mxGeometry>
        </mxCell>
        <mxCell id="yeTjRVyONtyWQfsbNsEQ-18" value="채팅방이&lt;div&gt;있나?&lt;/div&gt;" style="rhombus;whiteSpace=wrap;html=1;" vertex="1" parent="1">
          <mxGeometry x="350" y="230" width="80" height="80" as="geometry" />
        </mxCell>
        <mxCell id="yeTjRVyONtyWQfsbNsEQ-22" value="새로운 채팅방 개설" style="rounded=0;whiteSpace=wrap;html=1;" vertex="1" parent="1">
          <mxGeometry x="500" y="240" width="120" height="60" as="geometry" />
        </mxCell>
        <mxCell id="yeTjRVyONtyWQfsbNsEQ-23" value="채팅방 참가" style="rounded=0;whiteSpace=wrap;html=1;" vertex="1" parent="1">
          <mxGeometry x="330" y="370" width="120" height="60" as="geometry" />
        </mxCell>
        <mxCell id="yeTjRVyONtyWQfsbNsEQ-24" value="Yes" style="text;html=1;align=center;verticalAlign=middle;resizable=0;points=[];autosize=1;strokeColor=none;fillColor=none;" vertex="1" parent="1">
          <mxGeometry x="340" y="310" width="40" height="30" as="geometry" />
        </mxCell>
        <mxCell id="yeTjRVyONtyWQfsbNsEQ-25" value="No" style="text;html=1;align=center;verticalAlign=middle;resizable=0;points=[];autosize=1;strokeColor=none;fillColor=none;" vertex="1" parent="1">
          <mxGeometry x="440" y="240" width="40" height="30" as="geometry" />
        </mxCell>
        <mxCell id="yeTjRVyONtyWQfsbNsEQ-27" value="" style="endArrow=classic;startArrow=classic;html=1;rounded=0;entryX=0.5;entryY=0;entryDx=0;entryDy=0;" edge="1" parent="1" target="yeTjRVyONtyWQfsbNsEQ-22">
          <mxGeometry width="50" height="50" relative="1" as="geometry">
            <mxPoint x="450" y="170" as="sourcePoint" />
            <mxPoint x="500" y="120" as="targetPoint" />
          </mxGeometry>
        </mxCell>
        <mxCell id="yeTjRVyONtyWQfsbNsEQ-28" value="" style="endArrow=classic;startArrow=classic;html=1;rounded=0;exitX=0.5;exitY=0;exitDx=0;exitDy=0;" edge="1" parent="1" source="yeTjRVyONtyWQfsbNsEQ-18">
          <mxGeometry width="50" height="50" relative="1" as="geometry">
            <mxPoint x="350" y="250" as="sourcePoint" />
            <mxPoint x="400" y="200" as="targetPoint" />
          </mxGeometry>
        </mxCell>
        <mxCell id="yeTjRVyONtyWQfsbNsEQ-30" value="채팅방 나갈시&amp;nbsp;&lt;div&gt;채팅방 삭제&lt;/div&gt;" style="rounded=0;whiteSpace=wrap;html=1;" vertex="1" parent="1">
          <mxGeometry x="40" y="470" width="120" height="60" as="geometry" />
        </mxCell>
      </root>
    </mxGraphModel>
  </diagram>
</mxfile>
